# xmcd CD database file
#
# Track frame offsets:
#	150
#	16310
#	32731
#	48546
#	64478
#	81697
#	99262
#	117038
#	131388
#	152675
#	164226
#
# Disc length: 2334 seconds
#
# Revision: 0
# Processed by: cddbd v1.5.2PL0 Copyright (c) Steve Scherf et al.
# Submitted via: CDex 1.70beta2
#
DISCID=93091c0b
DTITLE=Julien Jacob - Sel [CD 1)
DYEAR=2010
DGENRE=Jazz
TTITLE0=Sel
TTITLE1=Lehe Lehe
TTITLE2=Kelly
TTITLE3=Ylangmo
TTITLE4=Halala
TTITLE5=Mere
TTITLE6=Degherr
TTITLE7=Yma
TTITLE8=Bissep
TTITLE9=Wourla
TTITLE10=Respir
EXTD=YEAR: 2010
EXTT0=
EXTT1=
EXTT2=
EXTT3=
EXTT4=
EXTT5=
EXTT6=
EXTT7=
EXTT8=
EXTT9=
EXTT10=
PLAYORDER=
